<svg id="Layer_1" enable-background="new 0 0 256 256" height="512" viewBox="0 0 256 256" width="512" xmlns="http://www.w3.org/2000/svg"><path d="m75.3 163.4v-13.5c0-6-4.9-10.9-10.9-10.9h-24.3c-6 0-10.9 4.9-10.9 10.9v13.5c-22.8 12.8-31 41.6-18.2 64.4s41.6 31 64.4 18.2 31-41.6 18.2-64.4c-4.3-7.6-10.6-13.9-18.3-18.2zm-23.1 71.1c-16.5 0-29.8-13.3-29.8-29.8s13.3-29.8 29.8-29.8 29.8 13.3 29.8 29.8c0 16.4-13.3 29.8-29.8 29.8z" fill="#8852a8"/><path d="m162.5 28.2h-13.5c-6 0-10.9 4.9-10.9 10.9v24.3c0 6 4.9 10.9 10.9 10.9h13.5c12.8 22.8 41.6 31 64.4 18.2s31-41.6 18.2-64.4-41.6-31-64.4-18.2c-7.6 4.4-13.9 10.7-18.2 18.3zm71.1 23.1c0 16.5-13.3 29.8-29.8 29.8s-29.8-13.3-29.8-29.8 13.3-29.8 29.8-29.8c16.4 0 29.7 13.4 29.8 29.8z" fill="#fcc24c"/><path d="m203.8 4c-1.4 0-2.7.1-4 .2 26 2.2 45.4 25.1 43.2 51.1-1.9 23-20.2 41.3-43.2 43.2 1.3.1 2.7.2 4 .2 26.1 0 47.3-21.2 47.3-47.3 0-26.2-21.2-47.4-47.3-47.4z" fill="#dea42e"/><path d="m12.9 204.7c0-17.1 9.3-32.9 24.2-41.3v-13.5c0-6 4.9-10.9 10.9-10.9h-8c-6 0-10.9 4.9-10.9 10.9v13.5c-22.8 12.8-31 41.6-18.2 64.4 8.4 15 24.2 24.2 41.3 24.2 1.3 0 2.7-.1 4-.2-24.4-2.1-43.3-22.6-43.3-47.1z" fill="#a670c6"/><circle cx="52.2" cy="154.8" fill="#f4efed" r="4.9"/><circle cx="153.9" cy="51.3" fill="#f4efed" r="4.9"/><g fill="#690589"><path d="m52.2 254c-27.2 0-49.3-22.1-49.3-49.3 0-17.4 9.2-33.6 24.2-42.5v-12.4c0-7.1 5.8-12.9 12.9-12.9h24.3c7.1 0 12.9 5.8 12.9 12.9v12.4c23.4 13.9 31.2 44.1 17.4 67.5-8.8 15.1-24.9 24.3-42.4 24.3zm-12.1-113.1c-4.9 0-8.9 4-8.9 8.9v13.5c0 .7-.4 1.4-1 1.7-21.9 12.4-29.7 40-17.5 61.8s39.8 29.7 61.7 17.4c21.8-12.2 29.7-39.8 17.4-61.7-4.1-7.3-10.1-13.4-17.4-17.4-.6-.4-1-1-1-1.7v-13.5c0-4.9-4-8.9-8.9-8.9h-24.4zm12.1 95.6c-17.6 0-31.8-14.2-31.8-31.8s14.2-31.8 31.8-31.8 31.8 14.2 31.8 31.8c0 17.5-14.2 31.8-31.8 31.8zm0-59.6c-15.4 0-27.8 12.5-27.8 27.8s12.5 27.8 27.8 27.8 27.8-12.5 27.8-27.8c0-15.4-12.4-27.8-27.8-27.8z"/><path d="m12.7 208.9c-1.1 0-2-.9-2-2 0-4.2.4-8.3 1.2-12.4.2-1.1 1.2-1.8 2.3-1.6s1.8 1.2 1.6 2.3v.1c-.7 3.8-1.1 7.7-1.1 11.6 0 1.2-.9 2-2 2z"/><path d="m203.8 100.6c-17.4 0-33.5-9.2-42.4-24.2h-12.4c-7.1 0-12.9-5.8-12.9-12.9v-24.3c0-7.1 5.8-12.9 12.9-12.9h12.4c13.8-23.5 44-31.3 67.5-17.4s31.2 44.1 17.3 67.6c-8.9 15-25 24.2-42.4 24.1zm-54.8-70.4c-4.9 0-8.9 4-8.9 8.9v24.3c0 4.9 4 8.9 8.9 8.9h13.5c.7 0 1.4.4 1.7 1 12.2 21.8 39.8 29.7 61.7 17.4s29.7-39.8 17.4-61.7-39.8-29.7-61.7-17.4c-7.3 4.1-13.3 10.1-17.4 17.4-.4.6-1 1-1.7 1zm54.8 52.9c-17.6 0-31.8-14.2-31.8-31.8s14.2-31.8 31.8-31.8 31.8 14.2 31.8 31.8c-.1 17.6-14.3 31.8-31.8 31.8zm0-59.6c-15.4 0-27.8 12.5-27.8 27.8 0 15.4 12.4 27.8 27.8 27.8s27.8-12.4 27.8-27.8c0-15.3-12.5-27.8-27.8-27.8z"/><path d="m52.2 140.9c-5.6 0-10.2-4.6-10.2-10.2v-12.1c0-5.6 4.6-10.2 10.2-10.2s10.2 4.6 10.2 10.2v12.1c0 5.7-4.5 10.2-10.2 10.2zm0-28.4c-3.4 0-6.2 2.8-6.2 6.2v12.1c0 3.4 2.8 6.2 6.2 6.2s6.2-2.8 6.2-6.2v-12.1c0-3.5-2.7-6.2-6.2-6.2z"/><path d="m56.1 112.9c-5.6 0-10.2-4.6-10.2-10.2 0-1.1.2-2.1.5-3.1l3.7-11.5c1.7-5.4 7.5-8.3 12.8-6.6 5.4 1.7 8.3 7.5 6.6 12.8l-3.7 11.5c-1.4 4.3-5.3 7.1-9.7 7.1zm3.7-27.8c-2.7 0-5.1 1.7-5.9 4.3l-3.7 11.5c-1 3.3.8 6.7 4.1 7.7 3.2 1 6.6-.8 7.7-4l3.7-11.5c1-3.3-.8-6.7-4-7.8-.6-.1-1.3-.2-1.9-.2z"/><path d="m129.8 61.9h-12.1c-5.6 0-10.2-4.6-10.2-10.2s4.6-10.2 10.2-10.2h12.1c5.6 0 10.2 4.6 10.2 10.2s-4.6 10.2-10.2 10.2zm-12-16.4c-3.4 0-6.2 2.8-6.2 6.2s2.8 6.2 6.2 6.2h12.1c3.4 0 6.2-2.8 6.2-6.2s-2.8-6.2-6.2-6.2z"/><path d="m68.6 87.7c-5.6 0-10.2-4.6-10.2-10.2 0-2.7 1.1-5.3 3-7.2l8.5-8.5c4-4 10.4-4 14.4 0s4 10.4 0 14.4l-8.5 8.5c-1.9 1.9-4.5 3-7.2 3zm-4.3-5.8c2.4 2.4 6.3 2.4 8.8 0l8.5-8.5c2.4-2.4 2.4-6.3 0-8.8s-6.3-2.4-8.8 0l-8.5 8.5c-2.5 2.5-2.5 6.4 0 8.8z"/><path d="m90.8 70.1c-3.9 0-7.4-2.2-9.1-5.6-2.5-5-.5-11.2 4.6-13.7l10.7-5.4c5-2.5 11.2-.5 13.7 4.6 2.5 5 .5 11.2-4.6 13.7l-10.8 5.3c-1.4.7-2.9 1.1-4.5 1.1zm10.8-21.8c-1 0-1.9.2-2.8.7l-10.8 5.4c-3.1 1.5-4.3 5.3-2.8 8.3 1.5 3.1 5.3 4.3 8.3 2.8l10.8-5.4c3.1-1.5 4.3-5.3 2.8-8.3-1-2.2-3.2-3.5-5.5-3.5z"/><path d="m52.2 161.7c-3.8 0-6.9-3.1-6.9-6.9s3.1-6.9 6.9-6.9 6.9 3.1 6.9 6.9c0 3.8-3.1 6.9-6.9 6.9zm0-9.8c-1.6 0-2.9 1.3-2.9 2.9s1.3 2.9 2.9 2.9 2.9-1.3 2.9-2.9c0-1.6-1.3-2.9-2.9-2.9z"/><path d="m153.9 58.2c-3.8 0-6.9-3.1-6.9-6.9s3.1-6.9 6.9-6.9 6.9 3.1 6.9 6.9c0 3.8-3.1 6.9-6.9 6.9zm0-9.8c-1.6 0-2.9 1.3-2.9 2.9s1.3 2.9 2.9 2.9 2.9-1.3 2.9-2.9c0-1.6-1.3-2.9-2.9-2.9z"/></g></svg>