<svg height="512" viewBox="0 0 256 256" width="512" xmlns="http://www.w3.org/2000/svg"><path d="m244.442 244.441a25.805 25.805 0 0 1 -38.285-1.986l-75.381-92.893 18.786-18.786 92.893 75.381a25.8 25.8 0 0 1 1.987 38.284z" fill="#8852a8"/><path d="m242.455 206.157-92.893-75.381-5.639 5.639 92.893 75.38a25.811 25.811 0 0 1 4.587 35.247 26.16 26.16 0 0 0 3.039-2.6 25.8 25.8 0 0 0 -1.987-38.285z" fill="#6a348a"/><path d="m206.157 242.455-75.381-92.893 5.639-5.639 75.38 92.893a25.81 25.81 0 0 0 35.246 4.587 25.8 25.8 0 0 1 -40.884 1.052z" fill="#a670c6"/><path d="m226.188 254q-.715 0-1.435-.038a27.845 27.845 0 0 1 -20.153-10.247l-75.38-92.893a2 2 0 0 1 .138-2.674l18.785-18.786a2 2 0 0 1 2.674-.139l92.898 75.377a27.806 27.806 0 0 1 -17.527 49.4zm-92.723-104.3 74.245 91.492a23.8 23.8 0 0 0 35.317 1.833 23.8 23.8 0 0 0 -1.827-35.315l-91.5-74.245z" fill="#690589"/><circle cx="88.352" cy="88.352" fill="#fcc24c" r="84.352" transform="matrix(.271 -.963 .963 .271 -20.612 149.499)"/><path d="m86.393 172.4c1.453.119 2.917.2 4.388.246a84.325 84.325 0 0 0 0-168.581c-1.469.052-2.932.128-4.384.247a84.328 84.328 0 0 1 0 168.088z" fill="#dea42e"/><path d="m90.31 4.308c-1.453-.119-2.917-.195-4.388-.247a84.325 84.325 0 0 0 0 168.581c1.469-.051 2.932-.128 4.384-.246a84.328 84.328 0 0 1 0-168.088z" fill="#fce06a"/><path d="m88.352 174.663a86.335 86.335 0 1 1 61.06-147.371 86.311 86.311 0 0 1 -61.06 147.371zm0-168.624a82.313 82.313 0 1 0 58.232 24.081 82.1 82.1 0 0 0 -58.232-24.081z" fill="#690589"/><path d="m12.065 94.042a2 2 0 0 1 -2-1.926 92.049 92.049 0 0 1 .369-12.268 2 2 0 1 1 3.981.388 88.054 88.054 0 0 0 -.353 11.732 2 2 0 0 1 -1.924 2.073z" fill="#690589"/><circle cx="88.352" cy="88.352" fill="#f4efed" r="62.231" transform="matrix(.927 -.375 .375 .927 -26.71 39.641)"/><path d="m88.352 152.583a64.231 64.231 0 1 1 45.419-109.649 64.232 64.232 0 0 1 -45.419 109.649zm0-124.434a60.182 60.182 0 1 0 42.59 17.613 60.044 60.044 0 0 0 -42.59-17.613z" fill="#690589"/><path d="m134.162 123.887a15.888 15.888 0 0 0 -15.8-15.92h-17.462v-23.436h-24.98v23.436l-17.5-.007a15.852 15.852 0 0 0 -15.879 15.8v6.7c.59.641 1.184 1.278 1.806 1.9a62 62 0 0 0 42.558 18.193h2.895a62 62 0 0 0 42.559-18.193c.621-.621 1.216-1.259 1.806-1.9z" fill="#576fa5"/><path d="m88.408 123.9a12.489 12.489 0 0 1 -12.488-12.489v-26.88h24.98v26.88a12.49 12.49 0 0 1 -12.492 12.489z" fill="#ff9f70"/><path d="m88.408 125.9a14.5 14.5 0 0 1 -14.488-14.488v-26.881a2 2 0 0 1 2-2h24.98a2 2 0 0 1 2 2v26.881a14.5 14.5 0 0 1 -14.492 14.488zm-10.488-39.369v24.881a10.488 10.488 0 0 0 20.976 0v-24.881z" fill="#690589"/><path d="m86.906 152.549a63.955 63.955 0 0 1 -43.972-18.779c-.641-.641-1.255-1.3-1.863-1.958a2 2 0 0 1 -.529-1.355v-6.7a17.861 17.861 0 0 1 17.859-17.8h.023l15.5.007v-21.433a2 2 0 0 1 2-2h24.976a2 2 0 0 1 2 2v21.436h15.469a17.887 17.887 0 0 1 17.8 17.923v6.567a2 2 0 0 1 -.527 1.353c-.609.661-1.223 1.319-1.864 1.961a63.935 63.935 0 0 1 -43.927 18.777zm-42.364-22.876c.4.428.8.852 1.22 1.269a59.95 59.95 0 0 0 41.191 17.607h2.847a59.925 59.925 0 0 0 41.144-17.607c.417-.417.822-.841 1.22-1.269v-5.788a13.854 13.854 0 0 0 -4.039-9.823 13.677 13.677 0 0 0 -9.76-4.095h-17.465a2 2 0 0 1 -2-2v-21.436h-20.98v21.436a2 2 0 0 1 -2 2l-17.5-.008h-.02a13.855 13.855 0 0 0 -13.861 13.8z" fill="#690589"/><path d="m88.375 105.209a24.919 24.919 0 0 1 -24.757-25.078v-17.362a24.919 24.919 0 0 1 24.757-25.079 24.919 24.919 0 0 1 24.757 25.079v17.362a24.919 24.919 0 0 1 -24.757 25.078z" fill="#ff9f70"/><g fill="#690589"><path d="m88.375 107.208a26.949 26.949 0 0 1 -26.757-27.078v-17.361a26.759 26.759 0 1 1 53.514 0v17.361a26.949 26.949 0 0 1 -26.757 27.078zm0-67.518a22.946 22.946 0 0 0 -22.757 23.079v17.361a22.759 22.759 0 1 0 45.514 0v-17.361a22.946 22.946 0 0 0 -22.757-23.079z"/><path d="m85.311 72.524a2.58 2.58 0 0 1 2.507-2.507 5.731 5.731 0 1 0 0-11.46 5.653 5.653 0 0 0 -4.912 2.814 2.524 2.524 0 0 1 -3.479.92 2.494 2.494 0 0 1 -.869-3.428 10.753 10.753 0 1 1 11.767 15.861v3.325a2.448 2.448 0 0 1 -2.507 2.508 2.511 2.511 0 0 1 -2.507-2.508zm5.014 13.405v.921a2.447 2.447 0 0 1 -2.507 2.506 2.51 2.51 0 0 1 -2.507-2.506v-.921a2.545 2.545 0 0 1 2.507-2.508 2.479 2.479 0 0 1 2.507 2.508z"/></g></svg>