<svg height="512" viewBox="0 0 256 256" width="512" xmlns="http://www.w3.org/2000/svg"><circle cx="128" cy="128" fill="#526faa" r="123.985" transform="matrix(.995 -.1 .1 .995 -12.13 13.407)"/><path d="m128 4.016c-1.675 0-3.34.043-5 .108a123.977 123.977 0 0 1 0 247.752c1.659.065 3.324.109 5 .109a123.985 123.985 0 1 0 0-247.969z" fill="#34518c"/><path d="m128 251.985c1.675 0 3.34-.044 5-.109a123.977 123.977 0 0 1 0-247.752c-1.659-.065-3.324-.108-5-.108a123.985 123.985 0 1 0 0 247.969z" fill="#708dc8"/><g fill="#690589"><path d="m128 254c-16.28 0-31.457-13.308-42.735-37.473-11.052-23.68-17.139-55.119-17.139-88.527s6.087-64.847 17.139-88.527c11.278-24.165 26.455-37.473 42.735-37.473s31.457 13.308 42.735 37.473c11.052 23.68 17.139 55.119 17.139 88.527s-6.087 64.847-17.139 88.527c-11.278 24.165-26.455 37.473-42.735 37.473zm0-248c-14.637 0-28.527 12.488-39.11 35.165-10.81 23.161-16.764 54-16.764 86.835s5.954 63.674 16.764 86.835c10.583 22.677 24.473 35.165 39.11 35.165s28.527-12.488 39.11-35.165c10.81-23.161 16.764-54 16.764-86.835s-5.954-63.674-16.764-86.835c-10.583-22.677-24.473-35.165-39.11-35.165z"/><path d="m128 253.984a125.984 125.984 0 1 1 125.984-125.984 126.126 126.126 0 0 1 -125.984 125.984zm0-247.968a121.984 121.984 0 1 0 121.984 121.984 122.122 122.122 0 0 0 -121.984-121.984z"/><path d="m15.5 102.269a2.005 2.005 0 0 1 -1.944-2.469 107.209 107.209 0 0 1 3.783-12.427 2 2 0 0 1 3.748 1.4 103.02 103.02 0 0 0 -3.64 11.96 2 2 0 0 1 -1.947 1.536z"/><path d="m250.968 130h-245.936a2 2 0 0 1 0-4h245.936a2 2 0 0 1 0 4z"/><path d="m128 81.471c-40.023 0-78.007-9.094-101.608-24.326a2 2 0 1 1 2.169-3.361c22.981 14.832 60.154 23.687 99.439 23.687s76.458-8.855 99.439-23.687a2 2 0 0 1 2.169 3.361c-23.601 15.232-61.585 24.326-101.608 24.326z"/><path d="m228.522 202.536a1.988 1.988 0 0 1 -1.083-.32c-22.981-14.832-60.154-23.687-99.439-23.687s-76.458 8.855-99.439 23.687a2 2 0 0 1 -2.169-3.361c23.6-15.232 61.585-24.326 101.608-24.326s78.007 9.094 101.608 24.326a2 2 0 0 1 -1.086 3.681z"/><path d="m128 252.968a2 2 0 0 1 -2-2v-245.936a2 2 0 0 1 4 0v245.936a2 2 0 0 1 -2 2z"/></g><path d="m110.853 185.328v-32.328h34.447v32.324h31.105a21.913 21.913 0 0 1 21.795 21.962v44.7h-140.4v-44.879a21.867 21.867 0 0 1 21.9-21.789z" fill="#f4efed"/><path d="m110.853 177.502 17.064 21.225 17.385-21.225v-24.498h-34.449z" fill="#ff9f70"/><path d="m176.407 185.328h-7.653a21.906 21.906 0 0 1 21.788 21.949v44.709h7.658v-44.7a21.913 21.913 0 0 0 -21.793-21.958z" fill="#d6d1cf"/><path d="m79.706 185.318 7.653.01a21.865 21.865 0 0 0 -21.9 21.789v44.869h-7.659v-44.879a21.867 21.867 0 0 1 21.906-21.789z" fill="#fff"/><path d="m84.907 253.22a2 2 0 0 1 -2-2v-19.915a2 2 0 0 1 4 0v19.915a2 2 0 0 1 -2 2z" fill="#690589"/><path d="m171.093 253.22a2 2 0 0 1 -2-2v-19.915a2 2 0 0 1 4 0v19.915a2 2 0 0 1 -2 2z" fill="#690589"/><path d="m198.2 253.986h-140.395a2 2 0 0 1 -2-2v-44.879a23.865 23.865 0 0 1 23.872-23.789h.031l29.145.01v-30.328a2 2 0 0 1 2-2h34.447a2 2 0 0 1 2 2v30.324h29.1a23.589 23.589 0 0 1 16.84 7.059 23.829 23.829 0 0 1 6.948 16.9v44.7a2 2 0 0 1 -1.988 2.003zm-138.39-4h136.39v-42.7a19.855 19.855 0 0 0 -5.8-14.086 19.614 19.614 0 0 0 -14-5.874h-31.1a2 2 0 0 1 -2-2v-30.326h-30.45v30.324a2 2 0 0 1 -2 2l-31.147-.01h-.027a19.864 19.864 0 0 0 -19.874 19.791z" fill="#690589"/><path d="m145.302 177.502-17.385 21.225 19.543 14.353 5.198-27.752z" fill="#f4efed"/><path d="m110.853 177.502 17.064 21.225-19.378 14.353-5.198-27.755z" fill="#f4efed"/><path d="m147.46 215.08a2 2 0 0 1 -1.184-.388l-19.543-14.353a2 2 0 0 1 -.363-2.879l17.385-21.226a2 2 0 0 1 3-.1l7.356 7.826a2 2 0 0 1 .509 1.738l-5.2 27.752a2 2 0 0 1 -1.966 1.632zm-16.66-16.717 15.28 11.222 4.425-23.627-5.1-5.426z" fill="#690589"/><path d="m108.54 215.08a2 2 0 0 1 -1.966-1.632l-5.2-27.755a2.007 2.007 0 0 1 .523-1.754l7.512-7.823a2 2 0 0 1 3 .133l17.064 21.225a2 2 0 0 1 -.368 2.86l-19.375 14.353a2 2 0 0 1 -1.19.393zm-3.04-29.112 4.42 23.6 15.138-11.213-14.335-17.83z" fill="#690589"/><path d="m115.629 207.829 12.288 13.665 12.371-13.682-12.371-9.085z" fill="#526faa"/><path d="m115.629 251.982 12.288-30.488 12.371 30.506-12.371-.009z" fill="#526faa"/><path d="m127.917 223.494a1.931 1.931 0 0 1 -1.487-.662l-12.288-13.666a2 2 0 0 1 .3-2.944l12.288-9.1a2 2 0 0 1 2.375 0l12.37 9.086a2 2 0 0 1 .3 2.953l-12.375 13.674a2 2 0 0 1 -1.483.659zm-9.33-15.367 9.334 10.38 9.4-10.393-9.4-6.9z" fill="#690589"/><path d="m140.288 254-24.659-.018a2 2 0 0 1 -1.854-2.748l12.288-30.487a2 2 0 0 1 1.854-1.253 2 2 0 0 1 1.854 1.249l12.371 30.506a2 2 0 0 1 -1.854 2.751zm-21.7-4.016 18.727.014-9.4-23.168z" fill="#690589"/><path d="m65.458 226.74a2 2 0 0 1 -2-2v-8.182a2 2 0 0 1 4 0v8.182a2 2 0 0 1 -2 2z" fill="#690589"/><path d="m93.9 123.181h-2.436a11.408 11.408 0 1 0 0 22.815h2.436z" fill="#ffbd8e"/><path d="m164.608 123.181h-2.437v22.819h2.437a11.408 11.408 0 0 0 0-22.815z" fill="#e18152"/><path d="m128.036 181.17a34.359 34.359 0 0 1 -34.136-34.578v-23.939a34.359 34.359 0 0 1 34.135-34.578 34.359 34.359 0 0 1 34.135 34.578v23.939a34.359 34.359 0 0 1 -34.134 34.578z" fill="#ff9f70"/><path d="m128.036 88.075a34.038 34.038 0 0 0 -3.879.228 34.42 34.42 0 0 1 30.256 34.35v23.939a34.419 34.419 0 0 1 -30.256 34.349 33.809 33.809 0 0 0 3.879.229 34.359 34.359 0 0 0 34.135-34.578v-23.939a34.359 34.359 0 0 0 -34.135-34.578z" fill="#e18152"/><path d="m128.036 88.075a34.038 34.038 0 0 1 3.879.228 34.42 34.42 0 0 0 -30.256 34.35v23.939a34.419 34.419 0 0 0 30.256 34.349 33.809 33.809 0 0 1 -3.879.229 34.359 34.359 0 0 1 -34.136-34.578v-23.939a34.359 34.359 0 0 1 34.136-34.578z" fill="#ffbd8e"/><path d="m128.036 183.17c-19.925 0-36.135-16.409-36.135-36.578v-23.939c0-20.17 16.21-36.578 36.135-36.578s36.135 16.408 36.135 36.578v23.939c0 20.169-16.21 36.578-36.135 36.578zm0-93.095a32.4 32.4 0 0 0 -32.136 32.578v23.939a32.138 32.138 0 1 0 64.27 0v-23.939a32.4 32.4 0 0 0 -32.134-32.578z" fill="#690589"/><path d="m93.9 148h-2.436a13.408 13.408 0 0 1 0-26.815h2.436a2 2 0 0 1 2 2v22.815a2 2 0 0 1 -2 2zm-2.437-22.815a9.408 9.408 0 0 0 0 18.815h.437v-18.819z" fill="#690589"/><path d="m164.608 148h-2.437a2 2 0 0 1 -2-2v-22.819a2 2 0 0 1 2-2h2.437a13.408 13.408 0 1 1 0 26.815zm-.437-4h.437a9.408 9.408 0 1 0 0-18.815h-.437z" fill="#690589"/></svg>